<?xml version="1.0" encoding="utf-8"?>
<!-- Generator: Adobe Illustrator 22.0.0, SVG Export Plug-In . SVG Version: 6.00 Build 0)  -->
<svg version="1.1" id="Layer_1" xmlns="http://www.w3.org/2000/svg" xmlns:xlink="http://www.w3.org/1999/xlink" x="0px" y="0px"
	 viewBox="0 0 235.5 144" style="enable-background:new 0 0 235.5 144;" xml:space="preserve">
<style type="text/css">
	.st0{fill:#CCCCCC;}
</style>
<path class="st0" d="M137.2,16.4c-4.7-2.2-9.1-3.3-14.7-3.4c-20.3-0.4-37.1,15-37.4,34.3c-0.1,3.3,0.4,6.6,1.2,9.7l10.5-14.7
	l7.1,11.1c0,0,2.1,2.4,0.5,4.9c-0.1,0.2-9.6,13.3-9.6,13.3c6.6,6.9,15.9,11.1,26.4,11.3c10.3,0.2,19.4-3.6,26.2-9.9l-22.3-35.3
	c0,0,3.5-4.9,6.3-8.9c3-4.3,5.8-1.3,6.7,0.1c6.5,10.3,18.8,29.7,18.8,29.7l0-0.1c1.3-2.9,1.9-3.8,2-7.9L137.2,16.4L137.2,16.4z
	 M131.9,58.6c0,0-5.9,8.7-6.6,9.5c-3.6,4.9-6.3-0.8-6.3-0.8l-18.9-29.7c0,0,3.5-4.9,6.3-8.9c3-4.3,5.8-1.3,6.7,0.1
	C119.7,39.2,131.9,58.6,131.9,58.6L131.9,58.6z"/>
<g class="st0">
	<path d="M50.6,117.6l-1.6-20.4h-0.1l-6.3,16.3c-0.6,1.5-1.9,2.8-3.7,2.8c-1.8,0-3.2-1.5-3.7-2.8l-6.2-16.1H29l-1.8,20.2l-6,0
		l3.1-28.8c0.2-1.6,1.5-3.4,3.3-3.4c2.7,0,3.8,1.6,4.3,3.2l7,17.5h0.1l7-17.5c0.6-1.6,1.7-3.2,4.3-3.2c1.8,0,3.1,1.8,3.3,3.8l3,28.4
		L50.6,117.6L50.6,117.6z"/>
	<polygon points="59.7,93.3 65.3,93.3 65.3,117.6 59.7,117.6 59.7,93.3 	"/>
	<polygon points="192.1,93.3 197.7,93.3 197.7,117.6 192.1,117.6 192.1,93.3 	"/>
	<path d="M68.4,101.8c0-7.1,2.7-8.8,7.3-8.8h6c7.2,0,8.2-0.5,8.1,6.4l-13.1,0c-2.7,0-3.1,1.7-3.1,4.7v2.6c0,3.5,0.5,4.9,2.9,4.9
		l13.5,0c0,4.1-0.1,6.3-5.2,6.3h-9.2c-4.6,0-7.3-1.7-7.3-8.8V101.8L68.4,101.8z"/>
	<path d="M114.4,102v-1.5c0-4.4-1.1-7.2-5-7.2H93.1v24.3h5.1v-6.3h8.9c1.6,0,2.1,0.8,2.1,3.4v2.9h5.1v-4.1c0-4-1.3-5-2.8-5.4V108
		C113.9,107.2,114.4,105.3,114.4,102L114.4,102z M109.4,102.7c0,1.7-0.5,2.6-1.9,2.6h-9.3v-5.9h8.9c1.6,0,2.3,0.4,2.3,2.6V102.7
		L109.4,102.7z"/>
	<path d="M117.4,101.8c0-7.1,2.7-8.8,7.3-8.8h8.2c4.6,0,7.3,1.7,7.3,8.8v7.3c0,7.1-2.7,8.8-7.3,8.8h-8.2c-4.6,0-7.3-1.7-7.3-8.8
		V101.8L117.4,101.8z M122.7,106.7c0,3.5,0.5,4.9,2.9,4.9h6.5c2.4,0,2.9-1.3,2.9-4.9v-2.6c0-3-0.5-4.9-3.2-4.9h-6
		c-2.7,0-3.2,1.8-3.2,4.9V106.7L122.7,106.7z"/>
	<polygon points="167.6,93.3 172.7,93.3 172.7,101.9 183.5,101.9 183.5,93.3 188.5,93.3 188.5,117.6 183.5,117.6 183.5,108.4 
		172.7,108.4 172.7,117.6 167.6,117.6 167.6,93.3 	"/>
	<path d="M216.8,93.3h-15.7v24.3h5.1v-6.1h12c3.6,0,4.7-4.2,4.7-7.8v-2.1C222.8,96.8,221.6,93.3,216.8,93.3L216.8,93.3z
		 M217.6,102.8c0,1.4-0.5,2.6-1.7,2.6h-9.8v-6.1h9.3c1.5,0,2.1,0.9,2.1,2.6V102.8L217.6,102.8z"/>
	<path d="M143,101.8c0-7.1,2.7-8.8,7.3-8.8h6c7.2,0,8.2-0.5,8.1,6.4l-13.1,0c-2.7,0-3.1,1.7-3.1,4.7v2.6c0,3.5,0.5,4.9,2.9,4.9
		l13.5,0c0,4.1-0.1,6.3-5.2,6.3h-9.2c-4.6,0-7.3-1.7-7.3-8.8V101.8L143,101.8z"/>
</g>
<path class="st0" d="M143.3,18.3c0-1.6,1.3-2.8,2.9-2.8c1.5,0,2.9,1.2,2.9,2.8c0,1.6-1.3,2.8-2.9,2.8C144.6,21.1,143.3,19.9,143.3,18.3
	L143.3,18.3z M146.2,20.7c1.3,0,2.3-1,2.3-2.4c0-1.3-1-2.4-2.3-2.4c-1.3,0-2.3,1-2.3,2.4C143.8,19.7,144.9,20.7,146.2,20.7
	L146.2,20.7z M145.6,19.9h-0.5v-3.3h1.2c0.8,0,1.2,0.3,1.2,0.9c0,0.6-0.4,0.8-0.8,0.9l0.9,1.4H147l-0.9-1.4h-0.6V19.9L145.6,19.9z
	 M146.1,18.1c0.4,0,0.8,0,0.8-0.5c0-0.4-0.4-0.5-0.7-0.5h-0.7v1H146.1L146.1,18.1z"/>
</svg>
